{"title":"A Very Harold &amp; Kumar 3D Christmas 2011 TS XviD-26K","uid":6832298,"size":1329001109,"categoryP":"video","categoryS":"movies","magnet":"?xt=urn:btih:5f7494360504c72a8c95713592a6bf6628fdef9a&amp;dn=A+Very+Harold+%26amp%3B+Kumar+3D+Christmas+2011+TS+XviD-26K&amp;tr=udp%3A%2F%2Ftracker.openbittorrent.com%3A80&amp;tr=udp%3A%2F%2Fopen.demonii.com%3A1337&amp;tr=udp%3A%2F%2Ftracker.coppersurfer.tk%3A6969&amp;tr=udp%3A%2F%2Fexodus.desync.com%3A6969","seeders":0,"leechers":1,"uploader":"sceneline","files":6,"time":1321908966,"description":"- &lt;a href=&quot;\nhttp://www.Speed.Cd&quot; rel=&quot;nofollow&quot; target=&quot;_NEW&quot;&gt;\nhttp://www.Speed.Cd&lt;/a&gt;      fast  and The Hottest Private Tracker on the net\n\n   signup is open now\n\nPlease Seed back to make the speed Faster!!!\n\n------------------nfo--------------------------\n-[img]http://www.hotimg.com/direct/yvebYnj.jpg[/img]\n[code]\n\nA Very Harold &amp; Kumar 3D Christmas 2011 TS XviD-26K\n\nIMDb: http://www.imdb.com/title/tt1268799/\n\nPlot:\nSix years after their Guantanamo Bay adventure, stoner buds Harold Lee and Kumar Patel cause a holiday fracas by inadvertently burning down Harold's father-in-law's prize Christmas tree.\n\nSource:\nMiSTERE THNXS\n\nNotes:\nvideo is 3d i just added few brightness and sharpness filters :) so enjoy and it is in sync!&quot;\n\n\nVideo\nID                                       : 0\nFormat                                   : MPEG-4 Visual\nFormat profile                           : Advanced Simple@L5\nFormat settings, BVOP                    : 2\nFormat settings, QPel                    : No\nFormat settings, GMC                     : No warppoints\nFormat settings, Matrix                  : Default (H.263)\nCodec ID                                 : XVID\nCodec ID/Hint                            : XviD\nDuration                                 : 1h 20mn\nBit rate                                 : 1 900 Kbps\nWidth                                    : 720 pixels\nHeight                                   : 304 pixels\nDisplay aspect ratio                     : 2.35:1\nFrame rate                               : 24.000 fps\nColor space                              : YUV\nChroma subsampling                       : 4:2:0\nBit depth                                : 8 bits\nScan type                                : Progressive\nCompression mode                         : Lossy\nBits/(Pixel*Frame)                       : 0.362\nStream size                              : 1.07 GiB (88%)\nWriting library                          : XviD 63\n\nAudio\nID                                       : 1\nFormat                                   : MPEG Audio\nFormat version                           : Version 1\nFormat profile                           : Layer 3\nMode                                     : Joint stereo\nMode extension                           : MS Stereo\nCodec ID                                 : 55\nCodec ID/Hint                            : MP3\nDuration                                 : 1h 20mn\nBit rate mode                            : Constant\nBit rate                                 : 256 Kbps\nChannel(s)                               : 2 channels\nSampling rate                            : 44.1 KHz\nCompression mode                         : Lossy\nStream size                              : 148 MiB (12%)\nAlignment                                : Split accross interleaves\nInterleave, duration                     : 26 ms (0.63 video frame)\n\n[/code]\nScreens:\n[img]http://www.hotimg.com/direct/VrX6sVa.png[/img]\n[img]http://www.hotimg.com/direct/FcC9KjR.png[/img]\n[img]http://www.hotimg.com/direct/Pk4aTP4.png[/img]\n[img]http://www.hotimg.com/direct/ABuHfBr.png[/img]\n[img]http://www.hotimg.com/direct/dEPga3h.png[/img]","torrent":{"xt":"urn:btih:5f7494360504c72a8c95713592a6bf6628fdef9a","amp;dn":"A+Very+Harold+%26amp%3B+Kumar+3D+Christmas+2011+TS+XviD-26K","amp;tr":["udp%3A%2F%2Ftracker.openbittorrent.com%3A80","udp%3A%2F%2Fopen.demonii.com%3A1337","udp%3A%2F%2Ftracker.coppersurfer.tk%3A6969","udp%3A%2F%2Fexodus.desync.com%3A6969"],"infoHash":"5f7494360504c72a8c95713592a6bf6628fdef9a","infoHashBuffer":{"type":"Buffer","data":[95,116,148,54,5,4,199,42,140,149,113,53,146,166,191,102,40,253,239,154]},"announce":[],"urlList":[]}}